<?xml version="1.0" encoding="UTF-8" standalone="no"?>
<svg
   xmlns:dc="http://purl.org/dc/elements/1.1/"
   xmlns:cc="http://creativecommons.org/ns#"
   xmlns:rdf="http://www.w3.org/1999/02/22-rdf-syntax-ns#"
   xmlns:svg="http://www.w3.org/2000/svg"
   xmlns="http://www.w3.org/2000/svg"
   xmlns:sodipodi="http://sodipodi.sourceforge.net/DTD/sodipodi-0.dtd"
   xmlns:inkscape="http://www.inkscape.org/namespaces/inkscape"
   inkscape:version="1.0 (6e3e5246a0, 2020-05-07)"
   sodipodi:docname="icons8-github (1).svg"
   id="svg5"
   version="1.1"
   viewBox="0 0 50 50"
   height="50pt"
   width="50pt">
  <metadata
     id="metadata11">
    <rdf:RDF>
      <cc:Work
         rdf:about="">
        <dc:format>image/svg+xml</dc:format>
        <dc:type
           rdf:resource="http://purl.org/dc/dcmitype/StillImage" />
      </cc:Work>
    </rdf:RDF>
  </metadata>
  <defs
     id="defs9" />
  <sodipodi:namedview
     inkscape:current-layer="svg5"
     inkscape:window-maximized="1"
     inkscape:window-y="0"
     inkscape:window-x="0"
     inkscape:cy="46.925349"
     inkscape:cx="20.739594"
     inkscape:zoom="5.1883505"
     showgrid="false"
     id="namedview7"
     inkscape:window-height="875"
     inkscape:window-width="1600"
     inkscape:pageshadow="2"
     inkscape:pageopacity="0"
     guidetolerance="10"
     gridtolerance="10"
     objecttolerance="10"
     borderopacity="1"
     bordercolor="#666666"
     pagecolor="#ffffff" />
  <g
     transform="matrix(1.0846482,0,0,1.1126708,-2.1370312,-2.1984267)"
     id="surface21119238">
    <path
       id="path2"
       d="M 17.789062,46.835938 C 18.503906,46.53125 19,45.824219 19,45 v -5.398438 c 0,-0.199218 0.01563,-0.402343 0.03906,-0.613281 -0.01172,0.0039 -0.02344,0.0078 -0.03906,0.01172 0,0 -3,0 -3.601562,0 -1.5,0 -2.796876,-0.601562 -3.398438,-1.800781 -0.699219,-1.300781 -1,-3.5 -2.800781,-4.699219 -0.300781,-0.199219 -0.097657,-0.5 0.5,-0.5 0.601562,0.101562 1.902343,0.898438 2.699219,2 0.902343,1.101562 1.800781,2 3.402343,2 2.484375,0 3.820313,-0.125 4.621094,-0.554688 C 21.355469,34.054688 22.648438,33 24,33 V 32.97656 C 18.332031,32.792969 14.710938,30.910156 13.023438,28 9.359375,28.042969 6.167969,28.40625 4.347656,28.707031 4.289062,28.378906 4.238281,28.050781 4.195312,27.71875 5.992188,27.425781 9.039062,27.074219 12.542969,27.007812 12.429688,26.730469 12.332031,26.445312 12.25,26.15625 8.738281,25.980469 5.710938,26.11719 4.0625,26.25391 c -0.019531,-0.332031 -0.046875,-0.664062 -0.050781,-1 1.648437,-0.132812 4.597656,-0.269531 8.019531,-0.109375 -0.07813,-0.5 -0.128906,-1.011719 -0.128906,-1.542969 0,-1.699218 0.597656,-3.5 1.699218,-5 -0.5,-1.699218 -1.199218,-5.300781 0.199219,-6.601562 2.699219,0 4.601563,1.300781 5.5,2.101562 C 21,13.398438 22.898438,13 25,13 c 2.101562,0 4,0.398438 5.601562,1.101562 C 31.5,13.300781 33.398438,12 36.101562,12 c 1.5,1.398438 0.699219,5 0.199219,6.601562 1.097657,1.5 1.699219,3.199219 1.597657,5 0,0.484376 -0.04297,0.949219 -0.109376,1.40625 3.5,-0.171874 6.527344,-0.03125 8.203126,0.101563 0,0.339844 -0.03125,0.667969 -0.05078,1 -1.667968,-0.136719 -4.773437,-0.28125 -8.355468,-0.08984 -0.08984,0.335938 -0.199219,0.664063 -0.328126,0.980469 3.546876,0.04687 6.667969,0.390625 8.550782,0.691406 -0.04297,0.332032 -0.09375,0.660156 -0.152344,0.984375 C 43.742188,28.371094 40.484375,28.011719 36.777344,27.996094 35.113281,30.871094 31.558594,32.75 26,32.96875 V 33 c 2.601562,0 5,3.898438 5,6.601562 V 45 c 0,0.824219 0.496094,1.53125 1.210938,1.835938 C 41.371094,43.804688 48,35.164062 48,25 48,12.316406 37.683594,2 25,2 12.316406,2 2,12.316406 2,25 2,35.164062 8.628906,43.804688 17.789062,46.835938 Z m 0,0"
       style="fill:#ff6145;fill-opacity:1;fill-rule:nonzero;stroke:none" />
  </g>
</svg>
